<svg xmlns="http://www.w3.org/2000/svg" width="400" height="400">
  <circle cx="23" cy="12" r="0.8" fill="white" opacity="0.12"/>
  <circle cx="89" cy="34" r="1" fill="white" opacity="0.15"/>
  <circle cx="156" cy="8" r="0.6" fill="white" opacity="0.09"/>
  <circle cx="234" cy="45" r="1.2" fill="white" opacity="0.14"/>
  <circle cx="312" cy="23" r="0.7" fill="white" opacity="0.10"/>
  <circle cx="378" cy="41" r="0.9" fill="white" opacity="0.12"/>
  <circle cx="12" cy="67" r="1" fill="white" opacity="0.13"/>
  <circle cx="67" cy="89" r="0.7" fill="white" opacity="0.10"/>
  <circle cx="134" cy="78" r="1.1" fill="white" opacity="0.15"/>
  <circle cx="200" cy="56" r="0.8" fill="white" opacity="0.11"/>
  <circle cx="267" cy="90" r="1" fill="white" opacity="0.12"/>
  <circle cx="345" cy="73" r="0.6" fill="white" opacity="0.09"/>
  <circle cx="45" cy="123" r="0.8" fill="white" opacity="0.10"/>
  <circle cx="112" cy="134" r="1" fill="white" opacity="0.14"/>
  <circle cx="178" cy="112" r="0.7" fill="white" opacity="0.10"/>
  <circle cx="245" cy="145" r="1.2" fill="white" opacity="0.16"/>
  <circle cx="323" cy="123" r="0.8" fill="white" opacity="0.11"/>
  <circle cx="390" cy="134" r="1" fill="white" opacity="0.13"/>
  <circle cx="23" cy="167" r="0.9" fill="white" opacity="0.12"/>
  <circle cx="90" cy="178" r="0.6" fill="white" opacity="0.09"/>
  <circle cx="156" cy="189" r="1" fill="white" opacity="0.13"/>
  <circle cx="223" cy="156" r="0.8" fill="white" opacity="0.10"/>
  <circle cx="290" cy="178" r="1.1" fill="white" opacity="0.15"/>
  <circle cx="356" cy="190" r="0.7" fill="white" opacity="0.10"/>
  <circle cx="133" cy="167" r="0.8" fill="white" opacity="0.10"/>
  <circle cx="11" cy="212" r="0.8" fill="white" opacity="0.11"/>
  <circle cx="78" cy="234" r="1" fill="white" opacity="0.14"/>
  <circle cx="145" cy="223" r="0.7" fill="white" opacity="0.10"/>
  <circle cx="212" cy="245" r="1.2" fill="white" opacity="0.15"/>
  <circle cx="278" cy="212" r="0.9" fill="white" opacity="0.12"/>
  <circle cx="345" cy="234" r="0.7" fill="white" opacity="0.10"/>
  <circle cx="389" cy="223" r="1" fill="white" opacity="0.13"/>
  <circle cx="267" cy="56" r="0.7" fill="white" opacity="0.11"/>
  <circle cx="34" cy="267" r="0.8" fill="white" opacity="0.10"/>
  <circle cx="100" cy="289" r="1.1" fill="white" opacity="0.15"/>
  <circle cx="167" cy="278" r="0.6" fill="white" opacity="0.09"/>
  <circle cx="234" cy="290" r="1" fill="white" opacity="0.12"/>
  <circle cx="300" cy="267" r="0.8" fill="white" opacity="0.11"/>
  <circle cx="367" cy="289" r="1" fill="white" opacity="0.14"/>
  <circle cx="80" cy="156" r="0.6" fill="white" opacity="0.09"/>
  <circle cx="56" cy="312" r="0.9" fill="white" opacity="0.12"/>
  <circle cx="123" cy="334" r="0.7" fill="white" opacity="0.10"/>
  <circle cx="189" cy="323" r="1.2" fill="white" opacity="0.16"/>
  <circle cx="256" cy="312" r="0.8" fill="white" opacity="0.11"/>
  <circle cx="323" cy="345" r="1" fill="white" opacity="0.13"/>
  <circle cx="389" cy="323" r="0.7" fill="white" opacity="0.10"/>
  <circle cx="160" cy="312" r="0.8" fill="white" opacity="0.11"/>
  <circle cx="23" cy="367" r="0.8" fill="white" opacity="0.10"/>
  <circle cx="89" cy="378" r="1" fill="white" opacity="0.13"/>
  <circle cx="156" cy="356" r="0.7" fill="white" opacity="0.09"/>
  <circle cx="223" cy="389" r="1.1" fill="white" opacity="0.15"/>
  <circle cx="290" cy="367" r="0.8" fill="white" opacity="0.11"/>
  <circle cx="356" cy="378" r="0.9" fill="white" opacity="0.12"/>
  <circle cx="240" cy="189" r="1" fill="white" opacity="0.13"/>
  <circle cx="350" cy="90" r="0.7" fill="white" opacity="0.10"/>
  <circle cx="320" cy="400" r="1" fill="white" opacity="0.13"/>
  <circle cx="15" cy="389" r="0.6" fill="white" opacity="0.09"/>
</svg>